# Blender v2.74 (sub 0) OBJ File: 'fluidTank1.blend'
# www.blender.org
mtllib fluidTank1_noSphere.mtl
o Cube.001_Cube.000
v 0.000000 0.000000 1.000000
v 0.000000 1.000000 1.000000
v 0.000000 0.000000 0.000000
v 0.000000 1.000000 0.000000
v 1.000000 0.000000 1.000000
v 1.000000 1.000000 1.000000
v 1.000000 0.000000 0.000000
v 1.000000 1.000000 0.000000
v 0.899897 0.749978 0.250022
v 0.899897 0.250022 0.250022
v 0.899897 0.749978 0.749978
v 0.899897 0.250022 0.749978
v 0.250073 0.749927 0.100127
v 0.250073 0.250073 0.100127
v 0.749927 0.749927 0.100127
v 0.749927 0.250073 0.100127
v 0.099963 0.250223 0.749777
v 0.099963 0.749777 0.749777
v 0.099963 0.749777 0.250223
v 0.099963 0.250223 0.250223
v 0.250188 0.250188 0.899967
v 0.250188 0.749812 0.899967
v 0.749812 0.749812 0.899967
v 0.749812 0.250188 0.899967
vt 0.572290 0.029404
vt 0.982743 0.029404
vt 0.982743 0.439857
vt 0.983256 0.863203
vt 0.572803 0.863203
vt 0.572803 0.452750
vt 0.123114 0.121375
vt 0.011934 0.012533
vt 0.434044 0.012084
vt 0.123159 0.121051
vt 0.011871 0.012286
vt 0.434091 0.012424
vt 0.325228 0.123617
vt 0.325236 0.122365
vt 0.123189 0.119810
vt 0.011878 0.011021
vt 0.123186 0.121401
vt 0.011959 0.012498
vt 0.124424 0.120723
vt 0.013196 0.011819
vt 0.435263 0.011387
vt 0.469250 0.231002
vt 0.469250 0.025929
vt 0.556440 0.025944
vt 0.556410 0.231049
vt 0.556361 0.231070
vt 0.469299 0.231070
vt 0.324044 0.138043
vt 0.385647 0.199606
vt 0.324091 0.466340
vt 0.058555 0.546254
vt 0.325288 0.484698
vt 0.386852 0.546301
vt 0.572290 0.439857
vt 0.983256 0.452750
vt 0.325278 0.123373
vt 0.434101 0.011163
vt 0.325199 0.123401
vt 0.326436 0.122722
vt 0.118925 0.466340
vt 0.118972 0.138043
vt 0.057311 0.404732
vt 0.057311 0.199689
vt 0.385647 0.404815
vt 0.386852 0.751374
vt 0.058555 0.751420
vt 0.325206 0.813034
vt 0.120162 0.813034
vt 0.120080 0.484698
vn 0.000000 -1.000000 0.000000
vn 0.000000 1.000000 0.000000
vn 0.928400 0.000000 0.371700
vn 0.928400 -0.371700 0.000000
vn 0.928400 0.000000 -0.371700
vn 0.928400 0.371700 0.000000
vn 0.371700 0.000000 -0.928400
vn 0.000000 -0.371700 -0.928400
vn -0.371700 0.000000 -0.928400
vn 0.000000 0.371700 -0.928400
vn -0.928600 0.000000 -0.371000
vn -0.928600 -0.371000 0.000000
vn -0.928600 0.000000 0.371000
vn -0.928600 0.371000 0.000000
vn 0.371300 0.000000 0.928500
vn -0.371300 0.000000 0.928500
vn 0.000000 -0.371300 0.928500
vn 0.000000 0.371300 0.928500
vn 0.707000 0.000000 -0.707200
vn 0.707100 0.000000 0.707100
vn -0.706900 0.000000 0.707300
vn -0.706900 0.000000 -0.707300
vn 0.001000 1.000000 -0.000100
vn 0.001000 -1.000000 -0.000100
vn 0.000000 1.000000 -0.000100
vn 0.001000 1.000000 0.000000
vn 0.000300 1.000000 0.000000
vn 0.000400 1.000000 -0.000100
vn 0.000000 -1.000000 -0.000100
vn 0.001000 -1.000000 0.000000
vn 0.000300 -1.000000 0.000000
vn 0.000400 -1.000000 -0.000100
usemtl TankFrame.001
s off
f 3/1/1 7/2/1 5/3/1
f 8/4/2 4/5/2 2/6/2
f 10/7/3 7/8/3 8/9/3
f 9/10/4 8/11/4 6/12/4
f 11/7/5 6/8/5 5/9/5
f 12/10/6 5/11/6 7/12/6
f 13/13/7 14/10/7 3/11/7
f 13/7/8 4/8/8 8/9/8
f 16/14/9 15/15/9 8/16/9
f 16/7/10 7/8/10 3/9/10
f 17/17/11 1/18/11 2/9/11
f 19/13/12 18/10/12 2/11/12
f 19/19/13 4/20/13 3/21/13
f 17/13/14 20/10/14 3/11/14
f 22/10/15 2/11/15 1/12/15
f 24/10/16 5/11/16 6/12/16
f 23/17/17 6/8/17 2/9/17
f 21/17/18 1/8/18 5/9/18
f 22/22/19 21/23/19 17/24/19
f 14/24/20 13/25/20 19/22/20
f 10/24/21 9/26/21 15/22/21
f 24/24/22 23/25/22 11/27/22
f 24/28/23 12/29/23 16/30/23
f 15/31/24 11/32/24 23/33/24
f 1/34/1 3/1/1 5/3/1
f 6/35/2 8/4/2 2/6/2
f 9/36/3 10/7/3 8/9/3
f 11/13/4 9/10/4 6/12/4
f 12/36/5 11/7/5 5/9/5
f 10/13/6 12/10/6 7/12/6
f 4/12/7 13/13/7 3/11/7
f 15/36/8 13/7/8 8/9/8
f 7/37/9 16/14/9 8/16/9
f 14/36/10 16/7/10 3/9/10
f 18/38/11 17/17/11 2/9/11
f 4/12/12 19/13/12 2/11/12
f 20/39/13 19/19/13 3/21/13
f 1/12/14 17/13/14 3/11/14
f 21/13/15 22/10/15 1/12/15
f 23/13/16 24/10/16 6/12/16
f 22/38/17 23/17/17 2/9/17
f 24/38/18 21/17/18 5/9/18
f 18/25/19 22/22/19 17/24/19
f 20/23/20 14/24/20 19/22/20
f 16/23/21 10/24/21 15/22/21
f 12/23/22 24/24/22 11/27/22
f 14/40/25 21/41/25 24/28/25
f 14/40/26 20/42/26 17/43/26
f 24/28/25 16/30/25 14/40/25
f 16/30/27 12/29/27 10/44/27
f 14/40/28 17/43/28 21/41/28
f 22/45/29 13/46/29 15/31/29
f 13/46/30 18/47/30 19/48/30
f 15/31/29 23/33/29 22/45/29
f 15/31/31 9/49/31 11/32/31
f 22/45/32 18/47/32 13/46/32
