# Blender v2.74 (sub 0) OBJ File: 'solarGenerator.blend'
# www.blender.org
mtllib solarGenerator.mtl
o Cube.000_Cube.006
v 0.409091 0.500000 0.500000
v 0.227273 0.500000 0.500000
v -0.227273 0.500000 0.500000
v -0.409091 0.500000 0.500000
v -0.500000 0.409091 0.500000
v -0.500000 -0.409091 0.500000
v -0.409091 -0.500000 0.500000
v -0.227273 -0.500000 0.500000
v 0.227273 -0.500000 0.500000
v 0.409091 -0.500000 0.500000
v 0.409091 0.409091 0.500000
v 0.409091 -0.409091 0.500000
v 0.227273 0.409091 0.500000
v 0.227273 -0.409091 0.500000
v -0.227273 0.409091 0.500000
v -0.227273 -0.409091 0.500000
v -0.409091 0.409091 0.500000
v -0.409091 -0.409091 0.500000
v 0.409091 0.409091 0.495000
v 0.409091 -0.409091 0.495000
v 0.227273 0.409091 0.495000
v 0.227273 -0.409091 0.495000
v -0.227273 0.409091 0.495000
v -0.227273 -0.409091 0.495000
v -0.409091 0.409091 0.495000
v -0.409091 -0.409091 0.495000
v -0.500000 -0.500000 -0.500000
v -0.500000 0.500000 -0.500000
v -0.500000 -0.500000 0.500000
v -0.500000 0.500000 0.500000
v -0.500000 0.500000 0.409091
v -0.500000 0.500000 0.227273
v -0.500000 0.500000 -0.227273
v -0.500000 0.500000 -0.409091
v -0.500000 0.409091 -0.500000
v -0.500000 -0.409091 -0.500000
v -0.500000 -0.500000 -0.409091
v -0.500000 -0.500000 -0.227273
v -0.500000 -0.500000 0.227273
v -0.500000 -0.500000 0.409091
v -0.500000 0.409091 0.409091
v -0.500000 -0.409091 0.409091
v -0.500000 0.409091 0.227273
v -0.500000 -0.409091 0.227273
v -0.500000 0.409091 -0.227273
v -0.500000 -0.409091 -0.227273
v -0.500000 0.409091 -0.409091
v -0.500000 -0.409091 -0.409091
v -0.495000 0.409091 0.409091
v -0.495000 -0.409091 0.409091
v -0.495000 0.409091 0.227273
v -0.495000 -0.409091 0.227273
v -0.495000 0.409091 -0.227273
v -0.495000 -0.409091 -0.227273
v -0.495000 0.409091 -0.409091
v -0.495000 -0.409091 -0.409091
v -0.409091 0.500000 -0.500000
v -0.227273 0.500000 -0.500000
v 0.227273 0.500000 -0.500000
v 0.409091 0.500000 -0.500000
v 0.500000 0.409091 -0.500000
v 0.500000 -0.409091 -0.500000
v 0.409091 -0.500000 -0.500000
v 0.227273 -0.500000 -0.500000
v -0.227273 -0.500000 -0.500000
v -0.409091 -0.500000 -0.500000
v -0.409091 0.409091 -0.500000
v -0.409091 -0.409091 -0.500000
v -0.227273 0.409091 -0.500000
v -0.227273 -0.409091 -0.500000
v 0.227273 0.409091 -0.500000
v 0.227273 -0.409091 -0.500000
v 0.409091 0.409091 -0.500000
v 0.409091 -0.409091 -0.500000
v -0.409091 0.409091 -0.495000
v -0.409091 -0.409091 -0.495000
v -0.227273 0.409091 -0.495000
v -0.227273 -0.409091 -0.495000
v 0.227273 0.409091 -0.495000
v 0.227273 -0.409091 -0.495000
v 0.409091 0.409091 -0.495000
v 0.409091 -0.409091 -0.495000
v 0.500000 -0.500000 0.500000
v 0.500000 0.500000 0.500000
v 0.500000 -0.500000 -0.500000
v 0.500000 0.500000 -0.500000
v 0.500000 0.500000 -0.409091
v 0.500000 0.500000 -0.227273
v 0.500000 0.500000 0.227273
v 0.500000 0.500000 0.409091
v 0.500000 0.409091 0.500000
v 0.500000 -0.409091 0.500000
v 0.500000 -0.500000 0.409091
v 0.500000 -0.500000 0.227273
v 0.500000 -0.500000 -0.227273
v 0.500000 -0.500000 -0.409091
v 0.500000 0.409091 -0.409091
v 0.500000 -0.409091 -0.409091
v 0.500000 0.409091 -0.227273
v 0.500000 -0.409091 -0.227273
v 0.500000 0.409091 0.227273
v 0.500000 -0.409091 0.227273
v 0.500000 0.409091 0.409091
v 0.500000 -0.409091 0.409091
v 0.495000 0.409091 -0.409091
v 0.495000 -0.409091 -0.409091
v 0.495000 0.409091 -0.227273
v 0.495000 -0.409091 -0.227273
v 0.495000 0.409091 0.227273
v 0.495000 -0.409091 0.227273
v 0.495000 0.409091 0.409091
v 0.495000 -0.409091 0.409091
vt 0.136529 0.057716
vt 0.050771 0.057716
vt 0.050771 0.014837
vt 0.136529 0.486506
vt 0.050771 0.486506
vt 0.050771 0.443627
vt 0.436682 0.014837
vt 0.436682 0.057716
vt 0.350924 0.057716
vt 0.350924 0.443627
vt 0.136529 0.443627
vt 0.007892 0.443627
vt 0.136529 0.014837
vt 0.436682 0.486506
vt 0.350924 0.486506
vt 0.303988 0.603373
vt 0.304575 0.728694
vt 0.301129 0.728710
vt 0.339994 0.800859
vt 0.338572 0.926168
vt 0.335126 0.926129
vt 0.130190 0.558258
vt 0.130190 0.944169
vt 0.044432 0.944169
vt 0.303988 0.926149
vt 0.336547 0.800820
vt 0.336548 0.603347
vt 0.339994 0.603386
vt 0.345844 0.800858
vt 0.344422 0.926166
vt 0.340975 0.926127
vt 0.293959 0.926149
vt 0.290513 0.926165
vt 0.291100 0.728709
vt 0.342398 0.800819
vt 0.342399 0.603347
vt 0.345845 0.603386
vt 0.293959 0.603373
vt 0.294546 0.728693
vt 0.007892 0.057716
vt 0.007892 0.014837
vt 0.357726 0.603347
vt 0.357726 0.728668
vt 0.354279 0.728668
vt 0.371060 0.800807
vt 0.371060 0.926125
vt 0.367614 0.926125
vt 0.007892 0.486506
vt 0.356212 0.926119
vt 0.367614 0.800807
vt 0.365374 0.603347
vt 0.368821 0.603347
vt 0.364393 0.800808
vt 0.364393 0.926125
vt 0.360947 0.926125
vt 0.298974 0.926148
vt 0.295527 0.926164
vt 0.296115 0.728709
vt 0.360947 0.800808
vt 0.358708 0.603347
vt 0.362154 0.603347
vt 0.298974 0.603373
vt 0.299561 0.728693
vt 0.479561 0.014837
vt 0.436682 0.443627
vt 0.479561 0.443626
vt 0.506548 0.012080
vt 0.978217 0.012080
vt 0.978217 0.483749
vt 0.309003 0.603373
vt 0.309590 0.728693
vt 0.306143 0.728709
vt 0.279502 0.800884
vt 0.278082 0.926193
vt 0.274636 0.926154
vt 0.309002 0.926149
vt 0.276056 0.800845
vt 0.276055 0.603373
vt 0.279501 0.603412
vt 0.273655 0.800883
vt 0.272234 0.926190
vt 0.268788 0.926151
vt 0.283930 0.926145
vt 0.280483 0.926162
vt 0.281071 0.728702
vt 0.270209 0.800844
vt 0.270208 0.603373
vt 0.273654 0.603412
vt 0.283930 0.603373
vt 0.284517 0.728686
vt 0.510395 0.508818
vt 0.982064 0.508817
vt 0.982064 0.980486
vt 0.351784 0.603347
vt 0.351784 0.728668
vt 0.348338 0.728668
vt 0.267807 0.800886
vt 0.266385 0.926195
vt 0.262939 0.926156
vt 0.350272 0.926118
vt 0.264361 0.800846
vt 0.264361 0.603373
vt 0.267807 0.603412
vt 0.261958 0.800884
vt 0.260537 0.926192
vt 0.257091 0.926153
vt 0.288944 0.926150
vt 0.285498 0.926166
vt 0.286085 0.728710
vt 0.258512 0.800845
vt 0.258512 0.603373
vt 0.261958 0.603412
vt 0.288944 0.603373
vt 0.289532 0.728694
vt 0.350924 0.014837
vt 0.300542 0.603389
vt 0.044432 0.558258
vt 0.300542 0.926166
vt 0.290513 0.603389
vt 0.354280 0.603347
vt 0.352766 0.926119
vt 0.295527 0.603389
vt 0.479561 0.057716
vt 0.479561 0.486506
vt 0.506548 0.483749
vt 0.305556 0.603389
vt 0.305556 0.926165
vt 0.280484 0.603389
vt 0.510395 0.980487
vt 0.348338 0.603347
vt 0.346826 0.926118
vt 0.285498 0.603389
vn -0.000000 0.000000 1.000000
vn 0.000000 1.000000 0.000000
vn 0.000000 -1.000000 0.000000
vn -1.000000 0.000000 0.000000
vn 1.000000 0.000000 0.000000
vn 0.000000 0.000000 -1.000000
usemtl skin
s off
f 16/1/1 18/2/1 7/3/1
f 3/4/1 4/5/1 17/6/1
f 10/7/1 12/8/1 14/9/1
f 14/9/1 13/10/1 15/11/1
f 18/2/1 17/6/1 5/12/1
f 14/9/1 16/1/1 8/13/1
f 1/14/1 2/15/1 13/10/1
f 14/16/2 12/17/2 20/18/2
f 21/19/3 19/20/3 11/21/3
f 15/11/1 13/10/1 2/15/1
f 20/22/1 19/23/1 21/24/1
f 20/18/4 12/17/4 11/25/4
f 13/26/5 14/27/5 22/28/5
f 25/29/3 23/30/3 15/31/3
f 15/32/4 23/33/4 24/34/4
f 17/35/5 18/36/5 26/37/5
f 18/38/2 16/39/2 24/34/2
f 24/22/1 23/23/1 25/24/1
f 36/40/4 27/41/4 37/3/4
f 46/1/4 48/2/4 37/3/4
f 33/4/4 34/5/4 47/6/4
f 40/7/4 42/8/4 44/9/4
f 44/9/4 43/10/4 45/11/4
f 48/2/4 47/6/4 35/12/4
f 44/9/4 46/1/4 38/13/4
f 31/14/4 32/15/4 43/10/4
f 44/42/2 42/43/2 50/44/2
f 51/45/3 49/46/3 41/47/3
f 45/11/4 43/10/4 32/15/4
f 28/48/4 35/12/4 47/6/4
f 50/22/4 49/23/4 51/24/4
f 50/44/6 42/43/6 41/49/6
f 43/50/1 44/51/1 52/52/1
f 55/53/3 53/54/3 45/55/3
f 45/56/6 53/57/6 54/58/6
f 47/59/1 48/60/1 56/61/1
f 48/62/2 46/63/2 54/58/2
f 54/22/4 53/23/4 55/24/4
f 18/2/1 6/40/1 29/41/1
f 30/48/1 5/12/1 17/6/1
f 42/8/4 40/7/4 29/64/4
f 31/14/4 41/65/4 5/66/4
f 5/66/4 41/65/4 42/8/4
f 72/1/6 74/2/6 63/3/6
f 59/4/6 60/5/6 73/6/6
f 66/7/6 68/8/6 70/9/6
f 70/9/6 69/10/6 71/11/6
f 74/2/6 73/6/6 61/12/6
f 85/67/2 27/68/2 29/69/2
f 70/9/6 72/1/6 64/13/6
f 57/14/6 58/15/6 69/10/6
f 70/70/2 68/71/2 76/72/2
f 77/73/3 75/74/3 67/75/3
f 71/11/6 69/10/6 58/15/6
f 76/22/6 75/23/6 77/24/6
f 76/72/5 68/71/5 67/76/5
f 69/77/4 70/78/4 78/79/4
f 81/80/3 79/81/3 71/82/3
f 71/83/5 79/84/5 80/85/5
f 73/86/4 74/87/4 82/88/4
f 74/89/2 72/90/2 80/85/2
f 80/22/6 79/23/6 81/24/6
f 86/91/2 28/92/2 30/93/2
f 92/40/5 83/41/5 93/3/5
f 102/1/5 104/2/5 93/3/5
f 89/4/5 90/5/5 103/6/5
f 96/7/5 98/8/5 100/9/5
f 100/9/5 99/10/5 101/11/5
f 104/2/5 103/6/5 91/12/5
f 100/9/5 102/1/5 94/13/5
f 87/14/5 88/15/5 99/10/5
f 100/94/2 98/95/2 106/96/2
f 107/97/3 105/98/3 97/99/3
f 101/11/5 99/10/5 88/15/5
f 84/48/5 91/12/5 103/6/5
f 106/22/5 105/23/5 107/24/5
f 106/96/1 98/95/1 97/100/1
f 99/101/6 100/102/6 108/103/6
f 111/104/3 109/105/3 101/106/3
f 101/107/1 109/108/1 110/109/1
f 103/110/6 104/111/6 112/112/6
f 104/113/2 102/114/2 110/109/2
f 110/22/5 109/23/5 111/24/5
f 74/2/6 62/40/6 85/41/6
f 86/48/6 61/12/6 73/6/6
f 98/8/5 96/7/5 85/64/5
f 87/14/5 97/65/5 61/66/5
f 61/66/5 97/65/5 98/8/5
f 12/8/1 10/7/1 83/64/1
f 1/14/1 11/65/1 91/66/1
f 91/66/1 11/65/1 12/8/1
f 68/8/6 66/7/6 27/64/6
f 57/14/6 67/65/6 35/66/6
f 35/66/6 67/65/6 68/8/6
f 8/13/1 16/1/1 7/3/1
f 15/11/1 3/4/1 17/6/1
f 9/115/1 10/7/1 14/9/1
f 16/1/1 14/9/1 15/11/1
f 6/40/1 18/2/1 5/12/1
f 9/115/1 14/9/1 8/13/1
f 11/65/1 1/14/1 13/10/1
f 22/116/2 14/16/2 20/18/2
f 13/26/3 21/19/3 11/21/3
f 3/4/1 15/11/1 2/15/1
f 22/117/1 20/22/1 21/24/1
f 19/118/4 20/18/4 11/25/4
f 21/19/5 13/26/5 22/28/5
f 17/35/3 25/29/3 15/31/3
f 16/39/4 15/32/4 24/34/4
f 25/29/5 17/35/5 26/37/5
f 26/119/2 18/38/2 24/34/2
f 26/117/1 24/22/1 25/24/1
f 48/2/4 36/40/4 37/3/4
f 38/13/4 46/1/4 37/3/4
f 45/11/4 33/4/4 47/6/4
f 39/115/4 40/7/4 44/9/4
f 46/1/4 44/9/4 45/11/4
f 36/40/4 48/2/4 35/12/4
f 39/115/4 44/9/4 38/13/4
f 41/65/4 31/14/4 43/10/4
f 52/120/2 44/42/2 50/44/2
f 43/50/3 51/45/3 41/47/3
f 33/4/4 45/11/4 32/15/4
f 34/5/4 28/48/4 47/6/4
f 52/117/4 50/22/4 51/24/4
f 49/121/6 50/44/6 41/49/6
f 51/45/1 43/50/1 52/52/1
f 47/59/3 55/53/3 45/55/3
f 46/63/6 45/56/6 54/58/6
f 55/53/1 47/59/1 56/61/1
f 56/122/2 48/62/2 54/58/2
f 56/117/4 54/22/4 55/24/4
f 7/3/1 18/2/1 29/41/1
f 4/5/1 30/48/1 17/6/1
f 6/123/4 42/8/4 29/64/4
f 30/124/4 31/14/4 5/66/4
f 6/123/4 5/66/4 42/8/4
f 64/13/6 72/1/6 63/3/6
f 71/11/6 59/4/6 73/6/6
f 65/115/6 66/7/6 70/9/6
f 72/1/6 70/9/6 71/11/6
f 62/40/6 74/2/6 61/12/6
f 83/125/2 85/67/2 29/69/2
f 65/115/6 70/9/6 64/13/6
f 67/65/6 57/14/6 69/10/6
f 78/126/2 70/70/2 76/72/2
f 69/77/3 77/73/3 67/75/3
f 59/4/6 71/11/6 58/15/6
f 78/117/6 76/22/6 77/24/6
f 75/127/5 76/72/5 67/76/5
f 77/73/4 69/77/4 78/79/4
f 73/86/3 81/80/3 71/82/3
f 72/90/5 71/83/5 80/85/5
f 81/80/4 73/86/4 82/88/4
f 82/128/2 74/89/2 80/85/2
f 82/117/6 80/22/6 81/24/6
f 84/129/2 86/91/2 30/93/2
f 104/2/5 92/40/5 93/3/5
f 94/13/5 102/1/5 93/3/5
f 101/11/5 89/4/5 103/6/5
f 95/115/5 96/7/5 100/9/5
f 102/1/5 100/9/5 101/11/5
f 92/40/5 104/2/5 91/12/5
f 95/115/5 100/9/5 94/13/5
f 97/65/5 87/14/5 99/10/5
f 108/130/2 100/94/2 106/96/2
f 99/101/3 107/97/3 97/99/3
f 89/4/5 101/11/5 88/15/5
f 90/5/5 84/48/5 103/6/5
f 108/117/5 106/22/5 107/24/5
f 105/131/1 106/96/1 97/100/1
f 107/97/6 99/101/6 108/103/6
f 103/110/3 111/104/3 101/106/3
f 102/114/1 101/107/1 110/109/1
f 111/104/6 103/110/6 112/112/6
f 112/132/2 104/113/2 110/109/2
f 112/117/5 110/22/5 111/24/5
f 63/3/6 74/2/6 85/41/6
f 60/5/6 86/48/6 73/6/6
f 62/123/5 98/8/5 85/64/5
f 86/124/5 87/14/5 61/66/5
f 62/123/5 61/66/5 98/8/5
f 92/123/1 12/8/1 83/64/1
f 84/124/1 1/14/1 91/66/1
f 92/123/1 91/66/1 12/8/1
f 36/123/6 68/8/6 27/64/6
f 28/124/6 57/14/6 35/66/6
f 36/123/6 35/66/6 68/8/6
